<svg xmlns:xlink="http://www.w3.org/1999/xlink" xmlns="http://www.w3.org/2000/svg" width="799" height="869.28" viewBox="0 0 799 869.28">
  <g id="apae-logo" transform="translate(-23 -68.52)">
    <path id="Caminho_21" data-name="Caminho 21" d="M285.54,542.52c-.64-19.09-15.49-52.27-18.5-58.09l-32.39-66.07L203.38,318.13c-6.3-18.35-16.41-25.02-27.87-22.17l-1.02.16c-12.44,1.61-17.72,20.85-17.04,30.53l12.9,69.58c.42,6.19,24.99,57.94,24.99,57.94L129.51,351.72l27.53-139.08c2.87-16.97-.08-27.15-11.38-32.04l-.96-.39c-11.31-4.89-24.52,1.54-29.57,14.34L70.82,348.43a27.28,27.28,0,0,0-.67,18.24,24.863,24.863,0,0,0,2.53,8.17l24.51,66.98s5.75,17.21,9.22,22.61a97.9,97.9,0,0,0,14.34,17.19c16.78,16.35,35.98,44.82,35.98,44.82,12.24,17.08,27.5,38.59,27.5,38.59l-4.82,18.57,92.38,50.13s14.4-73.43,13.75-91.21" fill="#c6c5ba" fill-rule="evenodd"/>
    <path id="Caminho_22" data-name="Caminho 22" d="M194.45,222.85c1.78-9.86-4.05-16.49-10.7-19.55l-.55-.26a11.9,11.9,0,0,0-5.67-1.05,8.414,8.414,0,0,1,.96.39l.57.25c6.64,3.05,8.29,9.05,6.49,18.93l-14.02,79.2,1.69-4.43Z" fill="#c6c5ba" fill-rule="evenodd"/>
    <path id="Caminho_23" data-name="Caminho 23" d="M175.69,213.72c1.81-9.87-4.04-16.53-10.69-19.57l-.55-.26a11.63,11.63,0,0,0-5.69-1.05c.34.12.66.24.99.39l.57.25c6.62,3.06,8.29,9.05,6.49,18.92L142.7,349.9l1.71-4.43Z" fill="#c6c5ba" fill-rule="evenodd"/>
    <path id="Caminho_24" data-name="Caminho 24" d="M603.72,502.57c-4.48-18.86,1.36-55.28,2.74-61.79l23.26-78.38,4.12-106.38c1.28-19.65,9.53-28.88,21.68-29.12l1.05-.11c12.8-1.75,23.18,15.67,25.11,25.32l5.91,71.55c1.21,6.12-9.25,63.31-9.25,63.31l37.81-117.78L651.44,140.44c-7.43-15.85-7.22-26.6,2.67-34.38l.82-.67c9.92-7.78,24.77-5.01,33.22,6.19l85.36,138.76A27.12,27.12,0,0,1,779.06,268a25.177,25.177,0,0,1-.29,8.69l-6.33,72.11s-1.08,18.36-3.07,24.55a97.343,97.343,0,0,1-9.6,20.63c-12.25,20.47-27.85,53.25-27.85,53.25-7.57,20.02-21.11,44.97-21.11,44.97l2.7,72.79-93.15,44.36c0-.01-12.5-89.21-16.64-106.78" fill="#c6c5ba" fill-rule="evenodd"/>
    <path id="Caminho_25" data-name="Caminho 25" d="M617.06,160.4c-4.44-9.18-.41-17.25,5.35-22.01l.47-.38a12.147,12.147,0,0,1,5.36-2.55,7.79,7.79,0,0,0-.87.64l-.46.4c-5.77,4.75-5.83,11.07-1.4,20.25l35.24,73.78-2.89-3.89Z" fill="#c6c5ba" fill-rule="evenodd"/>
    <path id="Caminho_26" data-name="Caminho 26" d="M633.22,146.45c-4.44-9.18-.41-17.23,5.33-21.98l.5-.41a12.473,12.473,0,0,1,5.35-2.54c-.27.21-.57.4-.85.64l-.47.4c-5.8,4.76-5.85,11.08-1.4,20.24l60.89,128.15-2.86-3.89Z" fill="#c6c5ba" fill-rule="evenodd"/>
    <path id="Caminho_27" data-name="Caminho 27" d="M430.46,649.19a7.96,7.96,0,1,1-15.92,0V355.15a7.96,7.96,0,1,1,15.92,0Z" fill="#63b450" fill-rule="evenodd"/>
    <path id="Caminho_28" data-name="Caminho 28" d="M396.6,553.93s-62.41,16.23-97.44-93.54c-.33-1.04-.65-2.08-.97-3.14,0,0,97.54,33.09,98.41,96.68" fill="#6fb055" fill-rule="evenodd"/>
    <path id="Caminho_29" data-name="Caminho 29" d="M448.41,553.93s62.4,16.23,97.41-93.54c.35-1.04.67-2.08,1-3.14,0,0-97.54,33.09-98.41,96.68" fill="#6fb055" fill-rule="evenodd"/>
    <path id="Caminho_30" data-name="Caminho 30" d="M496.01,236.26c0,39.33-32.97,71.22-73.61,71.22-40.66,0-73.61-31.89-73.61-71.22,0-39.35,32.95-71.21,73.61-71.21,40.64,0,73.61,31.86,73.61,71.21" fill="#fbba00" fill-rule="evenodd"/>
    <path id="Caminho_31" data-name="Caminho 31" d="M422.89,175.73a60.062,60.062,0,0,0-44.61,19.56,60.237,60.237,0,0,1,39.96-14.98c32.8,0,59.4,25.73,59.4,57.47a56.3,56.3,0,0,1-14.77,37.92,56.552,56.552,0,0,0,19.39-42.48c.01-31.76-26.57-57.49-59.37-57.49" fill="#fff" fill-rule="evenodd"/>
    <path id="Caminho_32" data-name="Caminho 32" d="M469.08,397.82c5.3,43.81-36.18,49.09-48.78,49.09-30.91,0-55.68-23.81-50.82-50.25l11.31-50.89c3.1-18.36,17.69-31.3,38.18-31.3h3.66c18.19-.34,32.77,6.53,38.07,30.61Z" fill="#fd0" fill-rule="evenodd"/>
    <path id="Caminho_33" data-name="Caminho 33" d="M344.28,382.22c-25.6,32.63-56.67,8.57-65.02.2-20.54-20.55-21.18-52.83-.4-67.15l41.33-26.3c14.24-10.14,32.57-9.03,46.2,4.58l2.41,2.41c12.33,11.88,17.43,26.11,4.95,45.64Z" fill="#fd0" fill-rule="evenodd"/>
    <path id="Caminho_34" data-name="Caminho 34" d="M271.46,287.62c-36.87,4.45-41.31-30.49-41.31-41.07,0-26.03,20.04-46.9,42.29-42.79l42.88,9.52c15.45,2.6,26.34,14.91,26.34,32.17v3.06c.3,15.32-5.5,27.59-25.76,32.05Z" fill="#fd0" fill-rule="evenodd"/>
    <path id="Caminho_35" data-name="Caminho 35" d="M283.81,190.57c-29.96-13.45-17.38-41.95-12.55-49.96,11.89-19.7,36.59-26.34,51.56-13.09l28.12,26.79c10.51,9.04,13.14,23.31,5.25,36.39l-1.39,2.32c-6.79,11.72-16.77,18.38-34.15,12.49Z" fill="#fd0" fill-rule="evenodd"/>
    <path id="Caminho_36" data-name="Caminho 36" d="M340.6,121.37c-17.61-27.73,8.59-44.59,17.05-48.59a43.221,43.221,0,0,1,18.64-4.26h.24c14.65.13,27.71,8.14,31.35,21.69l8.72,37.85c3.8,13.32-1.84,26.69-15.63,33.26l-2.45,1.17c-12.1,6.07-24.1,6.12-35.38-8.37Z" fill="#fd0" fill-rule="evenodd"/>
    <path id="Caminho_37" data-name="Caminho 37" d="M500.74,382.22c25.57,32.63,56.65,8.57,65.02.2,20.52-20.55,21.17-52.83.4-67.15l-41.36-26.3c-14.24-10.14-32.55-9.03-46.16,4.58l-2.41,2.41c-12.34,11.88-17.44,26.11-4.96,45.64Z" fill="#fd0" fill-rule="evenodd"/>
    <path id="Caminho_38" data-name="Caminho 38" d="M573.56,287.62c36.87,4.45,41.32-30.49,41.32-41.07,0-26.03-20.07-46.9-42.31-42.79l-42.87,9.52c-15.44,2.6-26.34,14.91-26.34,32.17v3.06c-.28,15.32,5.5,27.59,25.77,32.05Z" fill="#fd0" fill-rule="evenodd"/>
    <path id="Caminho_39" data-name="Caminho 39" d="M561.22,190.57c29.94-13.45,17.35-41.95,12.51-49.96-11.87-19.7-36.58-26.34-51.53-13.09l-28.1,26.79c-10.53,9.04-13.17,23.31-5.28,36.39l1.41,2.32c6.75,11.72,16.75,18.38,34.12,12.49Z" fill="#fd0" fill-rule="evenodd"/>
    <path id="Caminho_40" data-name="Caminho 40" d="M504.4,121.37c17.61-27.73-8.59-44.59-17.03-48.59a43.189,43.189,0,0,0-18.64-4.26h-.24c-14.65.13-27.72,8.14-31.37,21.69l-8.71,37.85c-3.8,13.32,1.84,26.69,15.63,33.26l2.44,1.17c12.12,6.07,24.1,6.12,35.39-8.37Z" fill="#fd0" fill-rule="evenodd"/>
    <path id="Caminho_41" data-name="Caminho 41" d="M421.78,763.98s-50.13-28.88-.06-91.38c0,0,48.35,59.28.06,91.38" fill="#6fb055" fill-rule="evenodd"/>
    <path id="Caminho_42" data-name="Caminho 42" d="M103.94,645.99s-55.2-1.33-36.06-84.32c.19-.8.37-1.6.57-2.42.01,0,61.6,42.57,35.49,86.74" fill="#6fb055" fill-rule="evenodd"/>
    <path id="Caminho_43" data-name="Caminho 43" d="M114.76,678.11S87.15,726.8,24.77,669.9c-.59-.56-1.16-1.09-1.77-1.65,0,0,66.2-34.62,91.76,9.86" fill="#6fb055" fill-rule="evenodd"/>
    <path id="Caminho_44" data-name="Caminho 44" d="M155.64,719.99s-17.01,58.42-96.9,14.53c-.77-.43-1.5-.85-2.28-1.28,0,0,61.19-53.6,99.18-13.25" fill="#6fb055" fill-rule="evenodd"/>
    <path id="Caminho_45" data-name="Caminho 45" d="M203.21,744.08s.9,60.92-88.2,43.39c-.84-.2-1.7-.37-2.54-.54.01,0,42.64-69.78,90.74-42.85" fill="#6fb055" fill-rule="evenodd"/>
    <path id="Caminho_46" data-name="Caminho 46" d="M218.63,727.48s-47.79-28.09,8.02-91.64c.55-.61,1.08-1.21,1.62-1.84,0,.01,34.05,67.43-9.64,93.48" fill="#6fb055" fill-rule="evenodd"/>
    <path id="Caminho_47" data-name="Caminho 47" d="M255.15,766.82s8.47,60.32-82.11,54.35c-.86-.07-1.72-.12-2.58-.19,0-.01,33.65-74.69,84.69-54.16" fill="#6fb055" fill-rule="evenodd"/>
    <path id="Caminho_48" data-name="Caminho 48" d="M262.86,744.89s-47.32-28.88,9.52-91.47c.52-.61,1.07-1.21,1.62-1.8.01,0,32.99,67.98-11.14,93.27" fill="#6fb055" fill-rule="evenodd"/>
    <path id="Caminho_49" data-name="Caminho 49" d="M304.9,777.78s23.51,56.01-65.46,74.2c-.84.18-1.69.35-2.57.49-.01,0,13.5-81.05,68.03-74.69" fill="#6fb055" fill-rule="evenodd"/>
    <path id="Caminho_50" data-name="Caminho 50" d="M311.2,757.82s-47.52-28.56,8.88-91.55c.55-.63,1.08-1.19,1.63-1.75,0,0,33.43,67.7-10.51,93.3" fill="#6fb055" fill-rule="evenodd"/>
    <path id="Caminho_51" data-name="Caminho 51" d="M365.81,760.65s-47.02-23.95,2.54-87.56c.47-.61.91-1.25,1.42-1.82,0,0,41.26,64.08-3.96,89.38" fill="#6fb055" fill-rule="evenodd"/>
    <path id="Caminho_52" data-name="Caminho 52" d="M363.23,786.42s37.34,50.98-48.58,91.6c-.82.39-1.62.78-2.47,1.13,0,0-5.8-85.57,51.05-92.73" fill="#6fb055" fill-rule="evenodd"/>
    <path id="Caminho_53" data-name="Caminho 53" d="M138.44,670.27s-45.76-22.66,1.53-84.85c.45-.56.89-1.16,1.37-1.75,0,0,35.65,59.75-2.9,86.6" fill="#6fb055" fill-rule="evenodd"/>
    <path id="Caminho_54" data-name="Caminho 54" d="M174.45,701.75s-47-29.51,10.61-91.36c.53-.58,1.1-1.17,1.64-1.76,0,0,32.15,68.37-12.25,93.12" fill="#6fb055" fill-rule="evenodd"/>
    <path id="Caminho_55" data-name="Caminho 55" d="M741.07,645.99s55.16-1.33,36.06-84.32c-.19-.8-.4-1.6-.58-2.42-.01,0-61.61,42.57-35.48,86.74" fill="#6fb055" fill-rule="evenodd"/>
    <path id="Caminho_56" data-name="Caminho 56" d="M730.25,678.11s27.63,48.69,89.97-8.21c.59-.56,1.19-1.09,1.78-1.65,0,0-66.2-34.62-91.75,9.86" fill="#6fb055" fill-rule="evenodd"/>
    <path id="Caminho_57" data-name="Caminho 57" d="M689.39,719.99s17.01,58.42,96.89,14.53c.74-.43,1.5-.85,2.27-1.28,0,0-61.19-53.6-99.16-13.25" fill="#6fb055" fill-rule="evenodd"/>
    <path id="Caminho_58" data-name="Caminho 58" d="M641.81,744.08s-.94,60.92,88.17,43.39c.84-.2,1.72-.37,2.55-.54,0,0-42.63-69.78-90.72-42.85" fill="#6fb055" fill-rule="evenodd"/>
    <path id="Caminho_59" data-name="Caminho 59" d="M626.37,727.48s47.8-28.09-8-91.64c-.56-.61-1.08-1.21-1.63-1.84,0,.01-34.05,67.43,9.63,93.48" fill="#6fb055" fill-rule="evenodd"/>
    <path id="Caminho_60" data-name="Caminho 60" d="M589.85,766.82s-8.45,60.32,82.12,54.35c.85-.07,1.7-.12,2.59-.19,0-.01-33.66-74.69-84.71-54.16" fill="#6fb055" fill-rule="evenodd"/>
    <path id="Caminho_61" data-name="Caminho 61" d="M582.15,744.89s47.34-28.88-9.52-91.47q-.81-.915-1.65-1.8s-32.94,67.98,11.17,93.27" fill="#6fb055" fill-rule="evenodd"/>
    <path id="Caminho_62" data-name="Caminho 62" d="M540.12,777.78s-23.54,56.01,65.44,74.2c.85.18,1.71.35,2.54.49,0,0-13.44-81.05-67.98-74.69" fill="#6fb055" fill-rule="evenodd"/>
    <path id="Caminho_63" data-name="Caminho 63" d="M533.81,757.82s47.51-28.56-8.89-91.55c-.54-.63-1.08-1.19-1.64-1.75,0,0-33.41,67.7,10.53,93.3" fill="#6fb055" fill-rule="evenodd"/>
    <path id="Caminho_64" data-name="Caminho 64" d="M479.2,760.65s47.01-23.95-2.53-87.56c-.48-.61-.94-1.25-1.45-1.82,0,0-41.24,64.08,3.98,89.38" fill="#6fb055" fill-rule="evenodd"/>
    <path id="Caminho_65" data-name="Caminho 65" d="M481.78,786.42s-37.34,50.98,48.59,91.6c.79.39,1.62.78,2.45,1.13,0,0,5.79-85.57-51.04-92.73" fill="#6fb055" fill-rule="evenodd"/>
    <path id="Caminho_66" data-name="Caminho 66" d="M706.55,670.27s45.78-22.66-1.53-84.85c-.42-.56-.88-1.16-1.36-1.75,0,0-35.62,59.75,2.89,86.6" fill="#6fb055" fill-rule="evenodd"/>
    <path id="Caminho_67" data-name="Caminho 67" d="M670.56,701.75s46.99-29.51-10.63-91.36c-.53-.58-1.07-1.17-1.64-1.76,0,0-32.14,68.37,12.27,93.12" fill="#6fb055" fill-rule="evenodd"/>
    <path id="Caminho_68" data-name="Caminho 68" d="M744.36,634.87C699.2,715.23,587.88,768.95,438.21,772.78h-.24s-13.65-.94-15.86,7.75c-2.22-8.69-15.87-7.75-15.87-7.75h-.23c-149.67-3.83-260.98-57.54-306.16-137.91-13.43-23.88-16.04-24.89-4.5-1.61,40.22,81.29,146.99,141.33,293.98,149.25l-.03.03h.41c1.12.09,2.19.14,3.32.19,6.46.59,19.15,3.21,20.73,14.22V928.97a8.8,8.8,0,0,0,8.31,8.83h.06a8.783,8.783,0,0,0,8.32-8.83V796.95c1.56-11.01,14.27-13.63,20.74-14.22,1.08-.05,2.2-.1,3.32-.19h.39l-.02-.03c146.98-7.92,253.74-67.96,294-149.25,11.52-23.27,8.91-22.27-4.52,1.61" fill="#6fb055" fill-rule="evenodd"/>
  </g>
</svg>